<mxfile host="app.diagrams.net" agent="Mozilla/5.0 (Windows NT 10.0; Win64; x64) AppleWebKit/537.36 (KHTML, like Gecko) Chrome/141.0.0.0 Safari/537.36" version="28.2.7">
  <diagram name="Page-1" id="0IjpciIiBjbiEE4qo8iB">
    <mxGraphModel dx="2528" dy="874" grid="1" gridSize="10" guides="1" tooltips="1" connect="1" arrows="1" fold="1" page="1" pageScale="1" pageWidth="850" pageHeight="1100" math="0" shadow="0">
      <root>
        <mxCell id="0" />
        <mxCell id="1" parent="0" />
        <mxCell id="wp3Suiw78tbHmogy2Ou4-28" style="edgeStyle=orthogonalEdgeStyle;rounded=0;orthogonalLoop=1;jettySize=auto;html=1;exitX=0.5;exitY=1;exitDx=0;exitDy=0;entryX=0.5;entryY=0;entryDx=0;entryDy=0;" parent="1" source="wp3Suiw78tbHmogy2Ou4-1" target="wp3Suiw78tbHmogy2Ou4-2" edge="1">
          <mxGeometry relative="1" as="geometry" />
        </mxCell>
        <mxCell id="wp3Suiw78tbHmogy2Ou4-1" value="User" style="ellipse;whiteSpace=wrap;html=1;fillColor=#fff2cc;strokeColor=#d6b656;" parent="1" vertex="1">
          <mxGeometry x="410" y="40" width="90" height="50" as="geometry" />
        </mxCell>
        <mxCell id="wp3Suiw78tbHmogy2Ou4-29" style="edgeStyle=orthogonalEdgeStyle;rounded=0;orthogonalLoop=1;jettySize=auto;html=1;exitX=0.5;exitY=1;exitDx=0;exitDy=0;entryX=0.5;entryY=0;entryDx=0;entryDy=0;" parent="1" source="wp3Suiw78tbHmogy2Ou4-2" target="wp3Suiw78tbHmogy2Ou4-4" edge="1">
          <mxGeometry relative="1" as="geometry" />
        </mxCell>
        <mxCell id="wp3Suiw78tbHmogy2Ou4-30" style="edgeStyle=orthogonalEdgeStyle;rounded=0;orthogonalLoop=1;jettySize=auto;html=1;exitX=0;exitY=0.5;exitDx=0;exitDy=0;entryX=0.5;entryY=0;entryDx=0;entryDy=0;" parent="1" source="wp3Suiw78tbHmogy2Ou4-2" target="wp3Suiw78tbHmogy2Ou4-11" edge="1">
          <mxGeometry relative="1" as="geometry" />
        </mxCell>
        <mxCell id="wp3Suiw78tbHmogy2Ou4-31" style="edgeStyle=orthogonalEdgeStyle;rounded=0;orthogonalLoop=1;jettySize=auto;html=1;exitX=1;exitY=0.5;exitDx=0;exitDy=0;entryX=0.5;entryY=0;entryDx=0;entryDy=0;" parent="1" source="wp3Suiw78tbHmogy2Ou4-2" target="wp3Suiw78tbHmogy2Ou4-17" edge="1">
          <mxGeometry relative="1" as="geometry" />
        </mxCell>
        <mxCell id="wp3Suiw78tbHmogy2Ou4-32" style="edgeStyle=orthogonalEdgeStyle;rounded=0;orthogonalLoop=1;jettySize=auto;html=1;exitX=0;exitY=0.5;exitDx=0;exitDy=0;entryX=0.25;entryY=0;entryDx=0;entryDy=0;" parent="1" source="wp3Suiw78tbHmogy2Ou4-2" target="wp3Suiw78tbHmogy2Ou4-14" edge="1">
          <mxGeometry relative="1" as="geometry" />
        </mxCell>
        <mxCell id="wp3Suiw78tbHmogy2Ou4-33" style="edgeStyle=orthogonalEdgeStyle;rounded=0;orthogonalLoop=1;jettySize=auto;html=1;exitX=0;exitY=0.5;exitDx=0;exitDy=0;entryX=0.5;entryY=0;entryDx=0;entryDy=0;" parent="1" source="wp3Suiw78tbHmogy2Ou4-2" target="wp3Suiw78tbHmogy2Ou4-20" edge="1">
          <mxGeometry relative="1" as="geometry" />
        </mxCell>
        <mxCell id="wp3Suiw78tbHmogy2Ou4-2" value="Logs in to&lt;div&gt;Aspirely &amp;amp; Accesses&lt;/div&gt;&lt;div&gt;Dashboard&lt;/div&gt;" style="rounded=0;whiteSpace=wrap;html=1;fillColor=#e1d5e7;strokeColor=#9673a6;" parent="1" vertex="1">
          <mxGeometry x="385" y="110" width="140" height="60" as="geometry" />
        </mxCell>
        <mxCell id="wp3Suiw78tbHmogy2Ou4-7" value="" style="group;fillColor=#d5e8d4;strokeColor=#82b366;" parent="1" vertex="1" connectable="0">
          <mxGeometry x="315" y="190" width="280" height="110" as="geometry" />
        </mxCell>
        <mxCell id="wp3Suiw78tbHmogy2Ou4-4" value="[ProgressRecord] Overall Progress Record" style="swimlane;whiteSpace=wrap;html=1;fillColor=#dae8fc;strokeColor=#6c8ebf;" parent="wp3Suiw78tbHmogy2Ou4-7" vertex="1">
          <mxGeometry width="280" height="109.99999999999999" as="geometry" />
        </mxCell>
        <mxCell id="wp3Suiw78tbHmogy2Ou4-6" value="&lt;b&gt;GET&amp;nbsp; &amp;nbsp; &amp;nbsp; &amp;nbsp; &amp;nbsp;/progress&amp;nbsp; &amp;nbsp; &amp;nbsp; &amp;nbsp; Overall Progress&lt;/b&gt;&lt;div&gt;&lt;b&gt;POST&amp;nbsp; &amp;nbsp; &amp;nbsp; &amp;nbsp;/progress&amp;nbsp; &amp;nbsp; &amp;nbsp; &amp;nbsp; Add new record&lt;/b&gt;&lt;/div&gt;&lt;div&gt;&lt;b&gt;GET&amp;nbsp; &amp;nbsp; &amp;nbsp; &amp;nbsp; &amp;nbsp;/progress/:id&amp;nbsp; &amp;nbsp;Get details of a record&lt;/b&gt;&lt;/div&gt;&lt;div&gt;&lt;b&gt;PUT&amp;nbsp; &amp;nbsp; &amp;nbsp; &amp;nbsp; &amp;nbsp;/progress/:id&amp;nbsp; &amp;nbsp;Update a record&lt;/b&gt;&lt;/div&gt;&lt;div&gt;&lt;b&gt;DELETE&amp;nbsp; /progress/:id&amp;nbsp; &amp;nbsp;Delete a record&lt;/b&gt;&lt;/div&gt;" style="text;html=1;whiteSpace=wrap;strokeColor=none;fillColor=none;align=left;verticalAlign=middle;rounded=0;" parent="wp3Suiw78tbHmogy2Ou4-7" vertex="1">
          <mxGeometry y="16.5" width="280" height="93.50000000000001" as="geometry" />
        </mxCell>
        <mxCell id="wp3Suiw78tbHmogy2Ou4-13" value="" style="group;fillColor=#d5e8d4;strokeColor=#82b366;" parent="1" vertex="1" connectable="0">
          <mxGeometry x="190" y="310" width="390" height="120" as="geometry" />
        </mxCell>
        <mxCell id="wp3Suiw78tbHmogy2Ou4-14" value="[Task] Task Manager" style="swimlane;whiteSpace=wrap;html=1;fillColor=#dae8fc;strokeColor=#6c8ebf;" parent="wp3Suiw78tbHmogy2Ou4-13" vertex="1">
          <mxGeometry width="390.0000000000001" height="120" as="geometry" />
        </mxCell>
        <mxCell id="wp3Suiw78tbHmogy2Ou4-15" value="&lt;div style=&quot;line-height: 70%;&quot;&gt;&lt;table&gt;&lt;tbody&gt;&lt;tr data-end=&quot;1493&quot; data-start=&quot;1458&quot;&gt;&lt;td data-col-size=&quot;sm&quot; data-end=&quot;1465&quot; data-start=&quot;1458&quot;&gt;&lt;font face=&quot;Helvetica&quot;&gt;&lt;b&gt;POST&lt;/b&gt;&lt;/font&gt;&lt;/td&gt;&lt;td data-end=&quot;1476&quot; data-start=&quot;1465&quot; data-col-size=&quot;sm&quot;&gt;&lt;code data-end=&quot;1475&quot; data-start=&quot;1467&quot;&gt;&lt;font face=&quot;Helvetica&quot;&gt;&lt;b&gt;&lt;span style=&quot;white-space: pre;&quot;&gt;&#x9;&lt;/span&gt;/tasks&lt;/b&gt;&lt;/font&gt;&lt;/code&gt;&lt;/td&gt;&lt;td data-end=&quot;1493&quot; data-start=&quot;1476&quot; data-col-size=&quot;md&quot;&gt;&lt;font face=&quot;Helvetica&quot;&gt;&lt;b&gt;&lt;span style=&quot;white-space: pre;&quot;&gt;&#x9;&lt;/span&gt;&amp;nbsp; &amp;nbsp; &amp;nbsp; &amp;nbsp; Create a task&lt;/b&gt;&lt;/font&gt;&lt;/td&gt;&lt;/tr&gt;&lt;/tbody&gt;&lt;/table&gt;&lt;table&gt;&lt;tbody&gt;&lt;tr data-end=&quot;1559&quot; data-start=&quot;1496&quot;&gt;&lt;td data-col-size=&quot;sm&quot; data-end=&quot;1502&quot; data-start=&quot;1496&quot;&gt;&lt;font face=&quot;Helvetica&quot;&gt;&lt;b&gt;GET&lt;/b&gt;&lt;/font&gt;&lt;/td&gt;&lt;td data-end=&quot;1513&quot; data-start=&quot;1502&quot; data-col-size=&quot;sm&quot;&gt;&lt;code data-end=&quot;1512&quot; data-start=&quot;1504&quot;&gt;&lt;font face=&quot;Helvetica&quot;&gt;&lt;b&gt;&lt;span style=&quot;white-space: pre;&quot;&gt;&#x9;&lt;/span&gt;&amp;nbsp; /tasks&lt;/b&gt;&lt;/font&gt;&lt;/code&gt;&lt;/td&gt;&lt;td data-end=&quot;1559&quot; data-start=&quot;1513&quot; data-col-size=&quot;md&quot;&gt;&lt;font face=&quot;Helvetica&quot;&gt;&lt;b&gt;&lt;span style=&quot;white-space: pre;&quot;&gt;&#x9;&lt;/span&gt;&lt;span style=&quot;white-space: pre;&quot;&gt;&#x9;&lt;/span&gt;List tasks (with optional filters/sorting)&lt;/b&gt;&lt;/font&gt;&lt;/td&gt;&lt;/tr&gt;&lt;/tbody&gt;&lt;/table&gt;&lt;table&gt;&lt;tbody&gt;&lt;tr data-end=&quot;1604&quot; data-start=&quot;1562&quot;&gt;&lt;td data-col-size=&quot;sm&quot; data-end=&quot;1568&quot; data-start=&quot;1562&quot;&gt;&lt;font face=&quot;Helvetica&quot;&gt;&lt;b&gt;GET&lt;/b&gt;&lt;/font&gt;&lt;/td&gt;&lt;td data-end=&quot;1583&quot; data-start=&quot;1568&quot; data-col-size=&quot;sm&quot;&gt;&lt;code data-end=&quot;1582&quot; data-start=&quot;1570&quot;&gt;&lt;font face=&quot;Helvetica&quot;&gt;&lt;b&gt;&lt;span style=&quot;white-space: pre;&quot;&gt;&#x9;&lt;/span&gt;&amp;nbsp; /tasks/:id&lt;/b&gt;&lt;/font&gt;&lt;/code&gt;&lt;/td&gt;&lt;td data-end=&quot;1604&quot; data-start=&quot;1583&quot; data-col-size=&quot;md&quot;&gt;&lt;font face=&quot;Helvetica&quot;&gt;&lt;b&gt;&lt;span style=&quot;white-space: pre;&quot;&gt;&#x9;&lt;/span&gt;&amp;nbsp; View task details&lt;/b&gt;&lt;/font&gt;&lt;/td&gt;&lt;/tr&gt;&lt;/tbody&gt;&lt;/table&gt;&lt;table&gt;&lt;tbody&gt;&lt;tr data-end=&quot;1645&quot; data-start=&quot;1607&quot;&gt;&lt;td data-col-size=&quot;sm&quot; data-end=&quot;1613&quot; data-start=&quot;1607&quot;&gt;&lt;font face=&quot;Helvetica&quot;&gt;&lt;b&gt;PUT&lt;/b&gt;&lt;/font&gt;&lt;/td&gt;&lt;td data-end=&quot;1628&quot; data-start=&quot;1613&quot; data-col-size=&quot;sm&quot;&gt;&lt;code data-end=&quot;1627&quot; data-start=&quot;1615&quot;&gt;&lt;font face=&quot;Helvetica&quot;&gt;&lt;b&gt;&lt;span style=&quot;white-space: pre;&quot;&gt;&#x9;&lt;/span&gt;&amp;nbsp; /tasks/:id&lt;/b&gt;&lt;/font&gt;&lt;/code&gt;&lt;/td&gt;&lt;td data-end=&quot;1645&quot; data-start=&quot;1628&quot; data-col-size=&quot;md&quot;&gt;&lt;font face=&quot;Helvetica&quot;&gt;&lt;b&gt;&lt;span style=&quot;white-space: pre;&quot;&gt;&#x9;&lt;/span&gt;&amp;nbsp; Update a task&lt;/b&gt;&lt;/font&gt;&lt;/td&gt;&lt;/tr&gt;&lt;/tbody&gt;&lt;/table&gt;&lt;table&gt;&lt;tbody&gt;&lt;tr data-end=&quot;1689&quot; data-start=&quot;1648&quot;&gt;&lt;td data-col-size=&quot;sm&quot; data-end=&quot;1657&quot; data-start=&quot;1648&quot;&gt;&lt;font face=&quot;Helvetica&quot;&gt;&lt;b&gt;DELETE&lt;/b&gt;&lt;/font&gt;&lt;/td&gt;&lt;td data-end=&quot;1672&quot; data-start=&quot;1657&quot; data-col-size=&quot;sm&quot;&gt;&lt;code data-end=&quot;1671&quot; data-start=&quot;1659&quot;&gt;&lt;font face=&quot;Helvetica&quot;&gt;&lt;b&gt;&amp;nbsp; &amp;nbsp;/tasks/:id&lt;/b&gt;&lt;/font&gt;&lt;/code&gt;&lt;/td&gt;&lt;td data-end=&quot;1689&quot; data-start=&quot;1672&quot; data-col-size=&quot;md&quot;&gt;&lt;font face=&quot;Helvetica&quot;&gt;&lt;b&gt;&lt;span style=&quot;white-space: pre;&quot;&gt;&#x9;&lt;/span&gt;&amp;nbsp; Delete a task&lt;/b&gt;&lt;/font&gt;&lt;/td&gt;&lt;/tr&gt;&lt;/tbody&gt;&lt;/table&gt;&lt;table&gt;&lt;tbody&gt;&lt;tr data-end=&quot;1750&quot; data-start=&quot;1692&quot;&gt;&lt;td data-col-size=&quot;sm&quot; data-end=&quot;1698&quot; data-start=&quot;1692&quot;&gt;&lt;font face=&quot;Helvetica&quot;&gt;&lt;b&gt;GET&lt;/b&gt;&lt;/font&gt;&lt;/td&gt;&lt;td data-end=&quot;1717&quot; data-start=&quot;1698&quot; data-col-size=&quot;sm&quot;&gt;&lt;code data-end=&quot;1716&quot; data-start=&quot;1700&quot;&gt;&lt;font face=&quot;Helvetica&quot;&gt;&lt;b&gt;&lt;span style=&quot;white-space: pre;&quot;&gt;&#x9;&lt;/span&gt;&amp;nbsp; /tasks/history&lt;/b&gt;&lt;/font&gt;&lt;/code&gt;&lt;/td&gt;&lt;td data-end=&quot;1750&quot; data-start=&quot;1717&quot; data-col-size=&quot;md&quot;&gt;&lt;font face=&quot;Helvetica&quot;&gt;&lt;b&gt;&amp;nbsp; &amp;nbsp;View completed/archived tasks&lt;/b&gt;&lt;/font&gt;&lt;/td&gt;&lt;/tr&gt;&lt;/tbody&gt;&lt;/table&gt;&lt;/div&gt;" style="text;html=1;whiteSpace=wrap;strokeColor=none;fillColor=none;align=left;verticalAlign=middle;rounded=0;" parent="wp3Suiw78tbHmogy2Ou4-13" vertex="1">
          <mxGeometry y="18" width="390.0000000000001" height="102" as="geometry" />
        </mxCell>
        <mxCell id="wp3Suiw78tbHmogy2Ou4-16" value="" style="group;fillColor=#d5e8d4;strokeColor=#82b366;" parent="1" vertex="1" connectable="0">
          <mxGeometry x="630" y="310" width="430" height="120" as="geometry" />
        </mxCell>
        <mxCell id="wp3Suiw78tbHmogy2Ou4-17" value="[Note] Notes App CRUD" style="swimlane;whiteSpace=wrap;html=1;fillColor=#dae8fc;strokeColor=#6c8ebf;" parent="wp3Suiw78tbHmogy2Ou4-16" vertex="1">
          <mxGeometry width="429.99999999999994" height="120" as="geometry" />
        </mxCell>
        <mxCell id="wp3Suiw78tbHmogy2Ou4-18" value="&lt;div style=&quot;line-height: 70%;&quot;&gt;&lt;table&gt;&lt;tbody&gt;&lt;tr data-end=&quot;2010&quot; data-start=&quot;1975&quot;&gt;&lt;td data-col-size=&quot;sm&quot; data-end=&quot;1982&quot; data-start=&quot;1975&quot;&gt;&lt;font face=&quot;Helvetica&quot;&gt;&lt;b&gt;POST&lt;/b&gt;&lt;/font&gt;&lt;/td&gt;&lt;td data-end=&quot;1993&quot; data-start=&quot;1982&quot; data-col-size=&quot;sm&quot;&gt;&lt;code data-end=&quot;1992&quot; data-start=&quot;1984&quot;&gt;&lt;font face=&quot;Helvetica&quot;&gt;&lt;b&gt;&lt;span style=&quot;white-space: pre;&quot;&gt;&#x9;&lt;/span&gt;&amp;nbsp;/notes&lt;/b&gt;&lt;/font&gt;&lt;/code&gt;&lt;/td&gt;&lt;td data-end=&quot;2010&quot; data-start=&quot;1993&quot; data-col-size=&quot;md&quot;&gt;&lt;font face=&quot;Helvetica&quot;&gt;&lt;b&gt;&lt;span style=&quot;white-space: pre;&quot;&gt;&#x9;&lt;/span&gt;&lt;span style=&quot;white-space: pre;&quot;&gt;&#x9;&lt;/span&gt;&amp;nbsp; &amp;nbsp;Create a note&lt;/b&gt;&lt;/font&gt;&lt;/td&gt;&lt;/tr&gt;&lt;/tbody&gt;&lt;/table&gt;&lt;table&gt;&lt;tbody&gt;&lt;tr data-end=&quot;2081&quot; data-start=&quot;2013&quot;&gt;&lt;td data-col-size=&quot;sm&quot; data-end=&quot;2019&quot; data-start=&quot;2013&quot;&gt;&lt;font face=&quot;Helvetica&quot;&gt;&lt;b&gt;GET&lt;/b&gt;&lt;/font&gt;&lt;/td&gt;&lt;td data-col-size=&quot;sm&quot; data-end=&quot;2030&quot; data-start=&quot;2019&quot;&gt;&lt;code data-end=&quot;2029&quot; data-start=&quot;2021&quot;&gt;&lt;font face=&quot;Helvetica&quot;&gt;&lt;b&gt;&lt;span style=&quot;white-space: pre;&quot;&gt;&#x9;&lt;/span&gt;&amp;nbsp; &amp;nbsp;/notes&lt;/b&gt;&lt;/font&gt;&lt;/code&gt;&lt;/td&gt;&lt;td data-end=&quot;2081&quot; data-start=&quot;2030&quot; data-col-size=&quot;md&quot;&gt;&lt;font face=&quot;Helvetica&quot;&gt;&lt;b&gt;&lt;span style=&quot;white-space: pre;&quot;&gt;&#x9;&lt;/span&gt;&lt;span style=&quot;white-space: pre;&quot;&gt;&#x9;&lt;/span&gt;&amp;nbsp; &amp;nbsp;List notes (with optional category/tag filters)&lt;/b&gt;&lt;/font&gt;&lt;/td&gt;&lt;/tr&gt;&lt;/tbody&gt;&lt;/table&gt;&lt;table&gt;&lt;tbody&gt;&lt;tr data-end=&quot;2120&quot; data-start=&quot;2084&quot;&gt;&lt;td data-col-size=&quot;sm&quot; data-end=&quot;2090&quot; data-start=&quot;2084&quot;&gt;&lt;font face=&quot;Helvetica&quot;&gt;&lt;b&gt;GET&lt;/b&gt;&lt;/font&gt;&lt;/td&gt;&lt;td data-end=&quot;2105&quot; data-start=&quot;2090&quot; data-col-size=&quot;sm&quot;&gt;&lt;code data-end=&quot;2104&quot; data-start=&quot;2092&quot;&gt;&lt;font face=&quot;Helvetica&quot;&gt;&lt;b&gt;&amp;nbsp; &amp;nbsp; &amp;nbsp; &amp;nbsp; &amp;nbsp; &amp;nbsp;/notes/:id&lt;span style=&quot;white-space: pre;&quot;&gt;&#x9;&lt;/span&gt;&lt;span style=&quot;white-space: pre;&quot;&gt;&#x9;&lt;/span&gt;&lt;/b&gt;&lt;/font&gt;&lt;/code&gt;&lt;/td&gt;&lt;td data-end=&quot;2120&quot; data-start=&quot;2105&quot; data-col-size=&quot;md&quot;&gt;&lt;font face=&quot;Helvetica&quot;&gt;&lt;b&gt;&amp;nbsp;View a note&lt;/b&gt;&lt;/font&gt;&lt;/td&gt;&lt;/tr&gt;&lt;/tbody&gt;&lt;/table&gt;&lt;table&gt;&lt;tbody&gt;&lt;tr data-end=&quot;2161&quot; data-start=&quot;2123&quot;&gt;&lt;td data-col-size=&quot;sm&quot; data-end=&quot;2129&quot; data-start=&quot;2123&quot;&gt;&lt;font face=&quot;Helvetica&quot;&gt;&lt;b&gt;PUT&lt;/b&gt;&lt;/font&gt;&lt;/td&gt;&lt;td data-end=&quot;2144&quot; data-start=&quot;2129&quot; data-col-size=&quot;sm&quot;&gt;&lt;code data-end=&quot;2143&quot; data-start=&quot;2131&quot;&gt;&lt;font face=&quot;Helvetica&quot;&gt;&lt;b&gt;&lt;span style=&quot;white-space: pre;&quot;&gt;&#x9;&lt;/span&gt;&amp;nbsp; &amp;nbsp;/notes/:id&lt;/b&gt;&lt;/font&gt;&lt;/code&gt;&lt;/td&gt;&lt;td data-end=&quot;2161&quot; data-start=&quot;2144&quot; data-col-size=&quot;md&quot;&gt;&lt;font face=&quot;Helvetica&quot;&gt;&lt;b&gt;&lt;span style=&quot;white-space: pre;&quot;&gt;&#x9;&lt;/span&gt;&amp;nbsp; &amp;nbsp; &amp;nbsp; Update a note&lt;/b&gt;&lt;/font&gt;&lt;/td&gt;&lt;/tr&gt;&lt;/tbody&gt;&lt;/table&gt;&lt;table&gt;&lt;tbody&gt;&lt;tr data-end=&quot;2205&quot; data-start=&quot;2164&quot;&gt;&lt;td data-col-size=&quot;sm&quot; data-end=&quot;2173&quot; data-start=&quot;2164&quot;&gt;&lt;font face=&quot;Helvetica&quot;&gt;&lt;b&gt;DELETE&lt;/b&gt;&lt;/font&gt;&lt;/td&gt;&lt;td data-end=&quot;2188&quot; data-start=&quot;2173&quot; data-col-size=&quot;sm&quot;&gt;&lt;code data-end=&quot;2187&quot; data-start=&quot;2175&quot;&gt;&lt;font face=&quot;Helvetica&quot;&gt;&lt;b&gt;&amp;nbsp; &amp;nbsp; /notes/:id&lt;/b&gt;&lt;/font&gt;&lt;/code&gt;&lt;/td&gt;&lt;td data-end=&quot;2205&quot; data-start=&quot;2188&quot; data-col-size=&quot;md&quot;&gt;&lt;font face=&quot;Helvetica&quot;&gt;&lt;b&gt;&lt;span style=&quot;white-space: pre;&quot;&gt;&#x9;&lt;/span&gt;&amp;nbsp; &amp;nbsp; &amp;nbsp; Delete a note&lt;/b&gt;&lt;/font&gt;&lt;/td&gt;&lt;/tr&gt;&lt;/tbody&gt;&lt;/table&gt;&lt;table&gt;&lt;tbody&gt;&lt;tr data-end=&quot;2281&quot; data-start=&quot;2208&quot;&gt;&lt;td data-col-size=&quot;sm&quot; data-end=&quot;2214&quot; data-start=&quot;2208&quot;&gt;&lt;font face=&quot;Helvetica&quot;&gt;&lt;b&gt;GET&lt;/b&gt;&lt;/font&gt;&lt;/td&gt;&lt;td data-end=&quot;2236&quot; data-start=&quot;2214&quot; data-col-size=&quot;sm&quot;&gt;&lt;code data-end=&quot;2235&quot; data-start=&quot;2216&quot;&gt;&lt;font face=&quot;Helvetica&quot;&gt;&lt;b&gt;&lt;span style=&quot;white-space: pre;&quot;&gt;&#x9;&lt;/span&gt;&amp;nbsp;&amp;nbsp;&amp;nbsp;/notes/categories&lt;/b&gt;&lt;/font&gt;&lt;/code&gt;&lt;/td&gt;&lt;td data-end=&quot;2281&quot; data-start=&quot;2236&quot; data-col-size=&quot;md&quot;&gt;&lt;font face=&quot;Helvetica&quot;&gt;&lt;b&gt;List available categories/tags (optional)&lt;/b&gt;&lt;/font&gt;&lt;/td&gt;&lt;/tr&gt;&lt;/tbody&gt;&lt;/table&gt;&lt;/div&gt;" style="text;html=1;whiteSpace=wrap;strokeColor=none;fillColor=none;align=left;verticalAlign=middle;rounded=0;" parent="wp3Suiw78tbHmogy2Ou4-16" vertex="1">
          <mxGeometry y="18" width="430" height="102" as="geometry" />
        </mxCell>
        <mxCell id="wp3Suiw78tbHmogy2Ou4-19" value="" style="group;fillColor=#d5e8d4;strokeColor=#82b366;" parent="1" vertex="1" connectable="0">
          <mxGeometry x="-55" y="480" width="440" height="170" as="geometry" />
        </mxCell>
        <mxCell id="wp3Suiw78tbHmogy2Ou4-20" value="[Workout] Fitness App" style="swimlane;whiteSpace=wrap;html=1;fillColor=#dae8fc;strokeColor=#6c8ebf;" parent="wp3Suiw78tbHmogy2Ou4-19" vertex="1">
          <mxGeometry width="440.00000000000006" height="170" as="geometry" />
        </mxCell>
        <mxCell id="wp3Suiw78tbHmogy2Ou4-21" value="&lt;div style=&quot;line-height: 70%;&quot;&gt;&lt;table&gt;&lt;tbody&gt;&lt;tr data-end=&quot;2585&quot; data-start=&quot;2514&quot;&gt;&lt;td data-col-size=&quot;sm&quot; data-end=&quot;2521&quot; data-start=&quot;2514&quot;&gt;&lt;font face=&quot;Helvetica&quot;&gt;&lt;b&gt;POST&lt;span style=&quot;white-space: pre;&quot;&gt;&#x9;&lt;/span&gt;&lt;/b&gt;&lt;/font&gt;&lt;/td&gt;&lt;td data-end=&quot;2543&quot; data-start=&quot;2521&quot; data-col-size=&quot;sm&quot;&gt;&lt;code data-end=&quot;2542&quot; data-start=&quot;2523&quot;&gt;&lt;font face=&quot;Helvetica&quot;&gt;&lt;b&gt;&amp;nbsp; /fitness/progress&lt;/b&gt;&lt;/font&gt;&lt;/code&gt;&lt;/td&gt;&lt;td data-end=&quot;2585&quot; data-start=&quot;2543&quot; data-col-size=&quot;sm&quot;&gt;&lt;font face=&quot;Helvetica&quot;&gt;&lt;b&gt;&lt;span style=&quot;white-space: pre;&quot;&gt;&#x9;&lt;/span&gt;&amp;nbsp; &amp;nbsp; &amp;nbsp;Add a new progress log (weight, stats)&lt;/b&gt;&lt;/font&gt;&lt;/td&gt;&lt;/tr&gt;&lt;/tbody&gt;&lt;/table&gt;&lt;table&gt;&lt;tbody&gt;&lt;tr data-end=&quot;2651&quot; data-start=&quot;2588&quot;&gt;&lt;td data-col-size=&quot;sm&quot; data-end=&quot;2594&quot; data-start=&quot;2588&quot;&gt;&lt;font face=&quot;Helvetica&quot;&gt;&lt;b&gt;GET&lt;/b&gt;&lt;/font&gt;&lt;/td&gt;&lt;td data-col-size=&quot;sm&quot; data-end=&quot;2616&quot; data-start=&quot;2594&quot;&gt;&lt;code data-end=&quot;2615&quot; data-start=&quot;2596&quot;&gt;&lt;font face=&quot;Helvetica&quot;&gt;&lt;b&gt;&lt;span style=&quot;white-space: pre;&quot;&gt;&#x9;&lt;/span&gt;&amp;nbsp; /fitness/progress&lt;span style=&quot;white-space: pre;&quot;&gt;&#x9;&lt;/span&gt;&lt;span style=&quot;white-space: pre;&quot;&gt;&#x9;&lt;/span&gt;&lt;/b&gt;&lt;/font&gt;&lt;/code&gt;&lt;/td&gt;&lt;td data-end=&quot;2651&quot; data-start=&quot;2616&quot; data-col-size=&quot;sm&quot;&gt;&lt;font face=&quot;Helvetica&quot;&gt;&lt;b&gt;&amp;nbsp; &amp;nbsp; &amp;nbsp;List all progress logs for user&lt;/b&gt;&lt;/font&gt;&lt;/td&gt;&lt;/tr&gt;&lt;/tbody&gt;&lt;/table&gt;&lt;table&gt;&lt;tbody&gt;&lt;tr data-end=&quot;2718&quot; data-start=&quot;2654&quot;&gt;&lt;td data-col-size=&quot;sm&quot; data-end=&quot;2660&quot; data-start=&quot;2654&quot;&gt;&lt;font face=&quot;Helvetica&quot;&gt;&lt;b&gt;GET&lt;/b&gt;&lt;/font&gt;&lt;/td&gt;&lt;td data-col-size=&quot;sm&quot; data-end=&quot;2686&quot; data-start=&quot;2660&quot;&gt;&lt;code data-end=&quot;2685&quot; data-start=&quot;2662&quot;&gt;&lt;font face=&quot;Helvetica&quot;&gt;&lt;b&gt;&lt;span style=&quot;white-space: pre;&quot;&gt;&#x9;&lt;/span&gt;&amp;nbsp; /fitness/progress/:id&lt;/b&gt;&lt;/font&gt;&lt;/code&gt;&lt;/td&gt;&lt;td data-end=&quot;2718&quot; data-start=&quot;2686&quot; data-col-size=&quot;sm&quot;&gt;&lt;font face=&quot;Helvetica&quot;&gt;&lt;b&gt;&lt;span style=&quot;white-space: pre;&quot;&gt;&#x9;&lt;/span&gt;Get a single progress record&lt;/b&gt;&lt;/font&gt;&lt;/td&gt;&lt;/tr&gt;&lt;/tbody&gt;&lt;/table&gt;&lt;table&gt;&lt;tbody&gt;&lt;tr data-end=&quot;2778&quot; data-start=&quot;2721&quot;&gt;&lt;td data-col-size=&quot;sm&quot; data-end=&quot;2727&quot; data-start=&quot;2721&quot;&gt;&lt;font face=&quot;Helvetica&quot;&gt;&lt;b&gt;PUT&lt;/b&gt;&lt;/font&gt;&lt;/td&gt;&lt;td data-col-size=&quot;sm&quot; data-end=&quot;2753&quot; data-start=&quot;2727&quot;&gt;&lt;code data-end=&quot;2752&quot; data-start=&quot;2729&quot;&gt;&lt;font face=&quot;Helvetica&quot;&gt;&lt;b&gt;&lt;span style=&quot;white-space: pre;&quot;&gt;&#x9;&lt;/span&gt;&amp;nbsp; /fitness/progress/:id&lt;/b&gt;&lt;/font&gt;&lt;/code&gt;&lt;/td&gt;&lt;td data-end=&quot;2778&quot; data-start=&quot;2753&quot; data-col-size=&quot;sm&quot;&gt;&lt;font face=&quot;Helvetica&quot;&gt;&lt;b&gt;&lt;span style=&quot;white-space: pre;&quot;&gt;&#x9;&lt;/span&gt;Update a progress log&lt;/b&gt;&lt;/font&gt;&lt;/td&gt;&lt;/tr&gt;&lt;/tbody&gt;&lt;/table&gt;&lt;table&gt;&lt;tbody&gt;&lt;tr data-end=&quot;2841&quot; data-start=&quot;2781&quot;&gt;&lt;td data-col-size=&quot;sm&quot; data-end=&quot;2790&quot; data-start=&quot;2781&quot;&gt;&lt;font face=&quot;Helvetica&quot;&gt;&lt;b&gt;DELETE&lt;/b&gt;&lt;/font&gt;&lt;/td&gt;&lt;td data-end=&quot;2816&quot; data-start=&quot;2790&quot; data-col-size=&quot;sm&quot;&gt;&lt;code data-end=&quot;2815&quot; data-start=&quot;2792&quot;&gt;&lt;font face=&quot;Helvetica&quot;&gt;&lt;b&gt;&amp;nbsp; &amp;nbsp;/fitness/progress/:id&lt;/b&gt;&lt;/font&gt;&lt;/code&gt;&lt;/td&gt;&lt;td data-end=&quot;2841&quot; data-start=&quot;2816&quot; data-col-size=&quot;sm&quot;&gt;&lt;font face=&quot;Helvetica&quot;&gt;&lt;b&gt;&lt;span style=&quot;white-space: pre;&quot;&gt;&#x9;&lt;/span&gt;Delete a progress log&lt;/b&gt;&lt;/font&gt;&lt;/td&gt;&lt;/tr&gt;&lt;/tbody&gt;&lt;/table&gt;&lt;table&gt;&lt;tbody&gt;&lt;tr data-end=&quot;2899&quot; data-start=&quot;2844&quot;&gt;&lt;td data-col-size=&quot;sm&quot; data-end=&quot;2850&quot; data-start=&quot;2844&quot;&gt;&lt;font face=&quot;Helvetica&quot;&gt;&lt;b&gt;GET&lt;span style=&quot;white-space: pre;&quot;&gt;&#x9;&lt;/span&gt;&lt;span style=&quot;white-space: pre;&quot;&gt;&#x9;&lt;/span&gt;&amp;nbsp;&lt;/b&gt;&lt;/font&gt;&lt;/td&gt;&lt;td data-end=&quot;2872&quot; data-start=&quot;2850&quot; data-col-size=&quot;sm&quot;&gt;&lt;code data-end=&quot;2871&quot; data-start=&quot;2852&quot;&gt;&lt;font face=&quot;Helvetica&quot;&gt;&lt;b&gt;&amp;nbsp;/fitness/workouts&lt;/b&gt;&lt;/font&gt;&lt;/code&gt;&lt;/td&gt;&lt;td data-end=&quot;2899&quot; data-start=&quot;2872&quot; data-col-size=&quot;sm&quot;&gt;&lt;font face=&quot;Helvetica&quot;&gt;&lt;b&gt;&lt;span style=&quot;white-space: pre;&quot;&gt;&#x9;&lt;/span&gt;&amp;nbsp; &amp;nbsp; &amp;nbsp;List scheduled workouts&lt;/b&gt;&lt;/font&gt;&lt;/td&gt;&lt;/tr&gt;&lt;/tbody&gt;&lt;/table&gt;&lt;table&gt;&lt;tbody&gt;&lt;tr data-end=&quot;2963&quot; data-start=&quot;2902&quot;&gt;&lt;td data-col-size=&quot;sm&quot; data-end=&quot;2909&quot; data-start=&quot;2902&quot;&gt;&lt;font face=&quot;Helvetica&quot;&gt;&lt;b&gt;POST&lt;/b&gt;&lt;/font&gt;&lt;/td&gt;&lt;td data-end=&quot;2931&quot; data-start=&quot;2909&quot; data-col-size=&quot;sm&quot;&gt;&lt;code data-end=&quot;2930&quot; data-start=&quot;2911&quot;&gt;&lt;font face=&quot;Helvetica&quot;&gt;&lt;b&gt;&lt;span style=&quot;white-space: pre;&quot;&gt;&#x9;&lt;/span&gt;&amp;nbsp;/fitness/workouts&lt;/b&gt;&lt;/font&gt;&lt;/code&gt;&lt;/td&gt;&lt;td data-end=&quot;2963&quot; data-start=&quot;2931&quot; data-col-size=&quot;sm&quot;&gt;&lt;font face=&quot;Helvetica&quot;&gt;&lt;b&gt;&lt;span style=&quot;white-space: pre;&quot;&gt;&#x9;&lt;/span&gt;&amp;nbsp; &amp;nbsp; &amp;nbsp;Create/update a workout plan&lt;/b&gt;&lt;/font&gt;&lt;/td&gt;&lt;/tr&gt;&lt;/tbody&gt;&lt;/table&gt;&lt;table&gt;&lt;tbody&gt;&lt;tr data-end=&quot;3027&quot; data-start=&quot;2966&quot;&gt;&lt;td data-col-size=&quot;sm&quot; data-end=&quot;2972&quot; data-start=&quot;2966&quot;&gt;&lt;font face=&quot;Helvetica&quot;&gt;&lt;b&gt;PUT&lt;/b&gt;&lt;/font&gt;&lt;/td&gt;&lt;td data-end=&quot;2998&quot; data-start=&quot;2972&quot; data-col-size=&quot;sm&quot;&gt;&lt;code data-end=&quot;2997&quot; data-start=&quot;2974&quot;&gt;&lt;font face=&quot;Helvetica&quot;&gt;&lt;b&gt;&lt;span style=&quot;white-space: pre;&quot;&gt;&#x9;&lt;/span&gt;&amp;nbsp; &amp;nbsp;/fitness/workouts/:id&lt;/b&gt;&lt;/font&gt;&lt;/code&gt;&lt;/td&gt;&lt;td data-end=&quot;3027&quot; data-start=&quot;2998&quot; data-col-size=&quot;sm&quot;&gt;&lt;font face=&quot;Helvetica&quot;&gt;&lt;b&gt;&lt;span style=&quot;white-space: pre;&quot;&gt;&#x9;&lt;/span&gt;Update a specific workout&lt;/b&gt;&lt;/font&gt;&lt;/td&gt;&lt;/tr&gt;&lt;/tbody&gt;&lt;/table&gt;&lt;table&gt;&lt;tbody&gt;&lt;tr data-end=&quot;3085&quot; data-start=&quot;3030&quot;&gt;&lt;td data-col-size=&quot;sm&quot; data-end=&quot;3039&quot; data-start=&quot;3030&quot;&gt;&lt;font face=&quot;Helvetica&quot;&gt;&lt;b&gt;DELETE&lt;/b&gt;&lt;/font&gt;&lt;/td&gt;&lt;td data-end=&quot;3065&quot; data-start=&quot;3039&quot; data-col-size=&quot;sm&quot;&gt;&lt;code data-end=&quot;3064&quot; data-start=&quot;3041&quot;&gt;&lt;font face=&quot;Helvetica&quot;&gt;&lt;b&gt;&amp;nbsp; &amp;nbsp; /fitness/workouts/:id&lt;/b&gt;&lt;/font&gt;&lt;/code&gt;&lt;/td&gt;&lt;td data-end=&quot;3085&quot; data-start=&quot;3065&quot; data-col-size=&quot;sm&quot;&gt;&lt;font face=&quot;Helvetica&quot;&gt;&lt;b&gt;&lt;span style=&quot;white-space: pre;&quot;&gt;&#x9;&lt;/span&gt;Remove a workout&lt;/b&gt;&lt;/font&gt;&lt;/td&gt;&lt;/tr&gt;&lt;/tbody&gt;&lt;/table&gt;&lt;/div&gt;" style="text;html=1;whiteSpace=wrap;strokeColor=none;fillColor=none;align=left;verticalAlign=middle;rounded=0;" parent="wp3Suiw78tbHmogy2Ou4-19" vertex="1">
          <mxGeometry y="25.5" width="440" height="144.5" as="geometry" />
        </mxCell>
        <mxCell id="wp3Suiw78tbHmogy2Ou4-25" value="" style="group;fillColor=#d5e8d4;strokeColor=#82b366;" parent="1" vertex="1" connectable="0">
          <mxGeometry x="560" y="440" width="310" height="110" as="geometry" />
        </mxCell>
        <mxCell id="wp3Suiw78tbHmogy2Ou4-26" value="[MeditationLog] Meditation Zone" style="swimlane;whiteSpace=wrap;html=1;fillColor=#dae8fc;strokeColor=#6c8ebf;" parent="wp3Suiw78tbHmogy2Ou4-25" vertex="1">
          <mxGeometry width="310" height="110" as="geometry" />
        </mxCell>
        <mxCell id="wp3Suiw78tbHmogy2Ou4-27" value="&lt;div style=&quot;line-height: 90%;&quot;&gt;&lt;table class=&quot;w-fit min-w-(--thread-content-width)&quot; data-end=&quot;3626&quot; data-start=&quot;3287&quot;&gt;&lt;thead data-end=&quot;3315&quot; data-start=&quot;3287&quot;&gt;&lt;/thead&gt;&lt;tbody data-end=&quot;3626&quot; data-start=&quot;3349&quot;&gt;&lt;tr data-end=&quot;3400&quot; data-start=&quot;3349&quot;&gt;&lt;td data-col-size=&quot;sm&quot; data-end=&quot;3356&quot; data-start=&quot;3349&quot;&gt;&lt;b&gt;POST&lt;/b&gt;&lt;/td&gt;&lt;td data-end=&quot;3373&quot; data-start=&quot;3356&quot; data-col-size=&quot;sm&quot;&gt;&lt;code data-end=&quot;3372&quot; data-start=&quot;3358&quot;&gt;&lt;font face=&quot;Helvetica&quot;&gt;&lt;b&gt;&amp;nbsp; &amp;nbsp;/meditations&lt;/b&gt;&lt;/font&gt;&lt;/code&gt;&lt;/td&gt;&lt;td data-end=&quot;3400&quot; data-start=&quot;3373&quot; data-col-size=&quot;sm&quot;&gt;&lt;b&gt;&amp;nbsp; &amp;nbsp;Create a meditation log&lt;/b&gt;&lt;/td&gt;&lt;/tr&gt;&lt;tr data-end=&quot;3454&quot; data-start=&quot;3403&quot;&gt;&lt;td data-col-size=&quot;sm&quot; data-end=&quot;3409&quot; data-start=&quot;3403&quot;&gt;&lt;b&gt;GET&lt;/b&gt;&lt;/td&gt;&lt;td data-end=&quot;3426&quot; data-start=&quot;3409&quot; data-col-size=&quot;sm&quot;&gt;&lt;code data-end=&quot;3425&quot; data-start=&quot;3411&quot;&gt;&lt;font face=&quot;Helvetica&quot;&gt;&lt;b&gt;&amp;nbsp; &amp;nbsp;/meditations&lt;/b&gt;&lt;/font&gt;&lt;/code&gt;&lt;/td&gt;&lt;td data-end=&quot;3454&quot; data-start=&quot;3426&quot; data-col-size=&quot;sm&quot;&gt;&lt;b&gt;&amp;nbsp; &amp;nbsp;List all meditation logs&lt;/b&gt;&lt;/td&gt;&lt;/tr&gt;&lt;tr data-end=&quot;3509&quot; data-start=&quot;3457&quot;&gt;&lt;td data-col-size=&quot;sm&quot; data-end=&quot;3463&quot; data-start=&quot;3457&quot;&gt;&lt;b&gt;GET&lt;/b&gt;&lt;/td&gt;&lt;td data-end=&quot;3484&quot; data-start=&quot;3463&quot; data-col-size=&quot;sm&quot;&gt;&lt;code data-end=&quot;3483&quot; data-start=&quot;3465&quot;&gt;&lt;font face=&quot;Helvetica&quot;&gt;&lt;b&gt;&amp;nbsp; &amp;nbsp;/meditations/:id&lt;/b&gt;&lt;/font&gt;&lt;/code&gt;&lt;/td&gt;&lt;td data-end=&quot;3509&quot; data-start=&quot;3484&quot; data-col-size=&quot;sm&quot;&gt;&lt;b&gt;&amp;nbsp; &amp;nbsp;View a meditation log&lt;/b&gt;&lt;/td&gt;&lt;/tr&gt;&lt;tr data-end=&quot;3566&quot; data-start=&quot;3512&quot;&gt;&lt;td data-col-size=&quot;sm&quot; data-end=&quot;3518&quot; data-start=&quot;3512&quot;&gt;&lt;b&gt;PUT&lt;/b&gt;&lt;/td&gt;&lt;td data-col-size=&quot;sm&quot; data-end=&quot;3539&quot; data-start=&quot;3518&quot;&gt;&lt;code data-end=&quot;3538&quot; data-start=&quot;3520&quot;&gt;&lt;font face=&quot;Helvetica&quot;&gt;&lt;b&gt;&amp;nbsp; &amp;nbsp;/meditations/:id&lt;/b&gt;&lt;/font&gt;&lt;/code&gt;&lt;/td&gt;&lt;td data-end=&quot;3566&quot; data-start=&quot;3539&quot; data-col-size=&quot;sm&quot;&gt;&lt;b&gt;&amp;nbsp; &amp;nbsp;Update a meditation log&lt;/b&gt;&lt;/td&gt;&lt;/tr&gt;&lt;tr data-end=&quot;3626&quot; data-start=&quot;3569&quot;&gt;&lt;td data-col-size=&quot;sm&quot; data-end=&quot;3578&quot; data-start=&quot;3569&quot;&gt;&lt;b&gt;DELETE&lt;/b&gt;&lt;/td&gt;&lt;td data-end=&quot;3599&quot; data-start=&quot;3578&quot; data-col-size=&quot;sm&quot;&gt;&lt;code data-end=&quot;3598&quot; data-start=&quot;3580&quot;&gt;&lt;font face=&quot;Helvetica&quot;&gt;&lt;b&gt;&amp;nbsp; &amp;nbsp;/meditations/:id&lt;/b&gt;&lt;/font&gt;&lt;/code&gt;&lt;/td&gt;&lt;td data-end=&quot;3626&quot; data-start=&quot;3599&quot; data-col-size=&quot;sm&quot;&gt;&lt;b&gt;&amp;nbsp; &amp;nbsp;Delete a meditation log&lt;/b&gt;&lt;/td&gt;&lt;/tr&gt;&lt;/tbody&gt;&lt;/table&gt;&lt;/div&gt;" style="text;html=1;whiteSpace=wrap;strokeColor=none;fillColor=none;align=left;verticalAlign=middle;rounded=0;" parent="wp3Suiw78tbHmogy2Ou4-25" vertex="1">
          <mxGeometry y="16.5" width="310" height="93.50000000000003" as="geometry" />
        </mxCell>
        <mxCell id="wp3Suiw78tbHmogy2Ou4-10" value="" style="group;fillColor=#d5e8d4;strokeColor=#82b366;" parent="1" vertex="1" connectable="0">
          <mxGeometry x="-260" y="310" width="410" height="160" as="geometry" />
        </mxCell>
        <mxCell id="wp3Suiw78tbHmogy2Ou4-11" value="[Chatroom &amp;amp; Friendship] WebSocket &amp;amp; Redis Module" style="swimlane;whiteSpace=wrap;html=1;fillColor=#dae8fc;strokeColor=#6c8ebf;" parent="wp3Suiw78tbHmogy2Ou4-10" vertex="1">
          <mxGeometry width="410.00000000000006" height="160" as="geometry" />
        </mxCell>
        <mxCell id="wp3Suiw78tbHmogy2Ou4-12" value="&lt;b&gt;GET&amp;nbsp; &amp;nbsp; &amp;nbsp; &amp;nbsp; &amp;nbsp;/friends &lt;span style=&quot;white-space: pre;&quot;&gt;&#x9;&lt;/span&gt;&lt;span style=&quot;white-space: pre;&quot;&gt;&#x9;&lt;/span&gt;&lt;span style=&quot;white-space: pre;&quot;&gt;&#x9;&lt;/span&gt;&lt;span style=&quot;white-space: pre;&quot;&gt;&#x9;&lt;/span&gt;&amp;nbsp; &amp;nbsp; &amp;nbsp; List all friends&lt;/b&gt;&lt;div&gt;&lt;b&gt;POST&amp;nbsp; &amp;nbsp; &amp;nbsp; &amp;nbsp;/friends/request &lt;span style=&quot;white-space: pre;&quot;&gt;&#x9;&lt;/span&gt;&lt;span style=&quot;white-space: pre;&quot;&gt;&#x9;&lt;/span&gt;&amp;nbsp; &amp;nbsp; &amp;nbsp; Send a friend request&lt;/b&gt;&lt;/div&gt;&lt;div&gt;&lt;b&gt;POST&amp;nbsp; &amp;nbsp; &amp;nbsp; &amp;nbsp;/friends/accept &lt;span style=&quot;white-space: pre;&quot;&gt;&#x9;&lt;/span&gt;&lt;span style=&quot;white-space: pre;&quot;&gt;&#x9;&lt;/span&gt;&amp;nbsp; &amp;nbsp; &amp;nbsp; Accept a friend request&lt;/b&gt;&lt;/div&gt;&lt;div&gt;&lt;b&gt;POST&amp;nbsp; &amp;nbsp; &amp;nbsp; &amp;nbsp;/friends/reject &lt;span style=&quot;white-space: pre;&quot;&gt;&#x9;&lt;/span&gt;&lt;span style=&quot;white-space: pre;&quot;&gt;&#x9;&lt;/span&gt;&amp;nbsp; &amp;nbsp; &amp;nbsp; Reject a friend request&lt;/b&gt;&lt;/div&gt;&lt;div&gt;&lt;b&gt;GET&amp;nbsp; &amp;nbsp; &amp;nbsp; &amp;nbsp; &amp;nbsp;/chatrooms&amp;nbsp; &amp;nbsp;&lt;span style=&quot;white-space: pre;&quot;&gt;&#x9;&lt;/span&gt;&lt;span style=&quot;white-space: pre;&quot;&gt;&#x9;&lt;/span&gt;&lt;span style=&quot;white-space: pre;&quot;&gt;&#x9;&lt;/span&gt;&amp;nbsp; &amp;nbsp; &amp;nbsp; Get all present ChatRooms&lt;/b&gt;&lt;/div&gt;&lt;div&gt;&lt;b&gt;POST&amp;nbsp; &amp;nbsp; &amp;nbsp; /chatrooms&amp;nbsp; &amp;nbsp;&lt;span style=&quot;white-space: pre;&quot;&gt;&#x9;&lt;/span&gt;&lt;span style=&quot;white-space: pre;&quot;&gt;&#x9;&lt;/span&gt;&lt;span style=&quot;white-space: pre;&quot;&gt;&#x9;&lt;/span&gt;&amp;nbsp; &amp;nbsp; &amp;nbsp; Create a chatroom [Admin only]&lt;/b&gt;&lt;/div&gt;&lt;div&gt;&lt;b&gt;GET&amp;nbsp;&lt;span style=&quot;white-space: pre;&quot;&gt;&#x9;&lt;/span&gt;/chatrooms/:id/messages&amp;nbsp; &amp;nbsp;Fetch messsages from a chatroom&lt;/b&gt;&lt;/div&gt;&lt;div&gt;&lt;b&gt;POST&amp;nbsp; &amp;nbsp; &amp;nbsp; /chatrooms/:id/messages&amp;nbsp; &amp;nbsp;Send a message to a chatroom&lt;/b&gt;&lt;/div&gt;" style="text;html=1;whiteSpace=wrap;strokeColor=none;fillColor=none;align=left;verticalAlign=middle;rounded=0;" parent="wp3Suiw78tbHmogy2Ou4-10" vertex="1">
          <mxGeometry y="24" width="410.00000000000006" height="136" as="geometry" />
        </mxCell>
        <mxCell id="wp3Suiw78tbHmogy2Ou4-34" style="edgeStyle=orthogonalEdgeStyle;rounded=0;orthogonalLoop=1;jettySize=auto;html=1;exitX=1;exitY=0.5;exitDx=0;exitDy=0;entryX=0.135;entryY=-0.036;entryDx=0;entryDy=0;entryPerimeter=0;" parent="1" source="wp3Suiw78tbHmogy2Ou4-2" target="wp3Suiw78tbHmogy2Ou4-26" edge="1">
          <mxGeometry relative="1" as="geometry" />
        </mxCell>
        <mxCell id="W_i6xNnvFU5Db-UG584C-1" value="" style="rounded=0;whiteSpace=wrap;html=1;fillColor=none;strokeColor=none;" vertex="1" parent="1">
          <mxGeometry x="-280" y="30" width="1360" height="640" as="geometry" />
        </mxCell>
      </root>
    </mxGraphModel>
  </diagram>
</mxfile>
